<?xml version="1.0" encoding="utf-8" ?>
<svg xmlns="http://www.w3.org/2000/svg" xmlns:xlink="http://www.w3.org/1999/xlink" width="2233" height="1674">
	<clipPath id="cl_4">
		<rect y="-0.00012207031" width="2232.5264" height="1674.3948"/>
	</clipPath>
	<g clip-path="url(#cl_4)">
		<path fill="white" transform="matrix(4.3266 0 0 4.3266 0 -116.818)" d="M0 0L515.559 0C515.835 0.487229 515.944 0.821761 515.97 1.38143C516.289 8.38537 516 15.5453 516 22.563L516.003 64.3612L516.001 192.479L516.003 388.551L516 426.318C516 428.914 516.408 438.765 515.844 440.449C515.783 440.629 515.648 440.843 515.559 441L0 441L0 0Z"/>
		<path fill="white" transform="matrix(4.3266 0 0 4.3266 0 -116.818)" d="M310.004 366.979C310.993 366.955 312.001 367.023 312.991 367.047C312.909 368.352 312.833 369.631 312.9 370.939C312.783 372.512 312.56 374.262 312.766 375.832C312.724 377.999 313.464 380.646 312.481 382.598C311.615 383.148 310.895 383.015 309.9 383.029Q309.83 375.003 310.004 366.979Z"/>
		<path fill="white" transform="matrix(4.3266 0 0 4.3266 0 -116.818)" d="M289.294 366.941C290.124 366.968 290.855 366.948 291.619 367.302C292.188 369.398 292.439 381.547 291.689 383.083C290.917 383.072 290.174 383.152 289.497 382.727C288.105 379.957 289.072 370.271 289.294 366.941Z"/>
		<path fill="white" transform="matrix(4.3266 0 0 4.3266 0 -116.818)" d="M179.275 366.946C180.134 366.959 180.791 366.94 181.564 367.342C182.601 369.716 181.944 378.095 181.905 381.026C184.72 381.08 188.099 380.555 190.778 381.463C191.265 381.995 191.174 382.037 191.156 382.771C187.19 382.789 183.218 382.963 179.251 383.03C178.95 377.684 179.126 372.295 179.275 366.946Z"/>
		<path fill="white" transform="matrix(4.3266 0 0 4.3266 0 -116.818)" d="M242.652 366.956C243.469 366.943 244.139 366.958 244.928 367.178C246.253 368.739 245.5 378.622 245.38 381.051C247.932 380.985 252.212 380.35 254.459 381.565C254.767 382.082 254.725 382.146 254.666 382.754Q248.657 382.935 242.647 383.042Q242.311 374.999 242.652 366.956Z"/>
		<path fill="white" transform="matrix(4.3266 0 0 4.3266 0 -116.818)" d="M192.513 366.985C194.579 366.984 203.513 366.711 204.753 367.941L204.575 368.335C202.06 369.355 197.993 368.936 195.272 368.973L195.238 373.976C197.496 373.983 199.802 374.131 202.03 374.497C202.303 374.542 202.123 374.496 202.53 374.74L202.442 375.183C200.346 376.157 197.542 375.98 195.259 376.036C195.135 377.507 195.285 378.899 195.281 380.363C195.278 381.468 195.23 382.261 194.428 383.052C193.743 383.082 193.684 383.054 193.096 382.697C191.676 380.392 192.445 370.085 192.513 366.985Z"/>
		<path fill="white" transform="matrix(4.3266 0 0 4.3266 0 -116.818)" d="M333.932 367.03C337.433 367.045 340.835 367.049 344.276 367.805C340.791 368.993 337.117 368.913 333.481 368.984C333.396 370.652 333.395 372.33 333.36 373.999C335.78 373.982 340.521 373.357 342.508 374.733C343.332 375.304 343.704 376.196 343.839 377.163C344.042 378.617 343.853 381.135 342.98 382.328C342.238 382.881 341.333 382.858 340.44 382.948C338.289 383.021 336.102 383.167 333.951 383.086C332.988 383.05 331.65 383.054 330.955 382.313L330.971 381.816C332.439 380.431 338.786 381.032 340.865 381.018L340.88 375.935C338.67 376.005 333.141 376.705 331.429 375.21C330.625 374.508 330.344 373.203 330.246 372.192C330.108 370.763 330.305 368.942 331.306 367.828C332.011 367.044 332.96 367.095 333.932 367.03Z"/>
		<path fill="white" transform="matrix(4.3266 0 0 4.3266 0 -116.818)" d="M255.597 366.994L258.504 366.957L258.497 381.012Q262.301 381.041 266.106 381.03C266.215 377.937 265.679 369.527 266.799 367.531C267.113 366.97 267.428 366.827 268.01 366.627C268.662 367.404 268.744 367.638 268.874 368.613C269.001 373.373 268.976 377.958 268.549 382.706C264.36 383.189 260.216 383.104 256.026 382.736C254.829 377.887 255.264 371.96 255.597 366.994Z"/>
		<path fill="white" transform="matrix(4.3266 0 0 4.3266 0 -116.818)" d="M210.21 366.967L213.813 366.902C214.748 368.656 215.455 370.537 216.171 372.389C217.044 374.647 220.081 380.919 219.095 383.143C218.487 383.321 218.395 383.315 217.782 383.152C216.756 382.244 216.503 380.988 215.781 379.879C215.345 379.208 214.942 379.173 214.223 379C212.383 378.941 210.551 378.993 208.712 379.044C208.386 380.081 207.972 381.534 207.302 382.398C206.92 382.891 206.503 382.99 205.897 382.995C205.276 383 204.892 382.929 204.435 382.53C204.757 380.802 205.659 378.986 206.281 377.334Q208.212 372.138 210.21 366.967Z"/>
		<path fill="white" transform="matrix(4.3266 0 0 4.3266 0 -116.818)" d="M212.2 370.093C212.246 370.132 212.298 370.166 212.339 370.211C213.289 371.251 214.174 375.288 214.188 376.769C213.634 377.136 212.343 377.001 211.65 377.028C210.975 376.992 210.5 377.106 209.981 376.653C209.633 374.445 211.145 371.968 212.2 370.093Z"/>
		<path fill="white" transform="matrix(4.3266 0 0 4.3266 0 -116.818)" d="M231.725 366.991C232.99 366.957 234.262 366.982 235.528 366.984C236.988 370.001 240.555 379.059 240.868 382.063C240.927 382.637 240.958 382.757 240.613 383.201C237.627 384.007 238.436 379.91 236.371 378.997C234.307 378.958 232.239 378.979 230.175 378.974C229.789 380.215 229.392 382.114 228.277 382.874C227.678 383.282 227.457 383.436 226.749 383.307C226.598 383.106 226.576 383.103 226.484 382.824C225.671 380.346 230.562 369.791 231.725 366.991Z"/>
		<path fill="white" transform="matrix(4.3266 0 0 4.3266 0 -116.818)" d="M233.271 370.244C233.33 370.275 233.394 370.299 233.449 370.338C234.422 371.018 235.413 373.773 235.605 374.945C235.731 375.711 235.762 376.261 235.326 376.897L234.314 377.027C233.465 377.051 232.457 377.229 231.737 376.711C231.015 375.323 232.86 371.849 233.271 370.244Z"/>
		<path fill="white" transform="matrix(4.3266 0 0 4.3266 0 -116.818)" d="M168.535 366.982C169.771 366.941 171.019 366.971 172.257 366.967C173.55 369.967 177.128 378.626 177.595 381.524C177.706 382.217 177.62 382.491 177.229 383.051C176.624 383.204 176.483 383.169 175.872 383.011C175.161 382.411 174.908 381.7 174.515 380.878C174.006 379.812 173.799 379.407 172.643 378.998C170.695 378.927 168.735 378.992 166.785 379.014C166.56 380.033 166.229 381.371 165.67 382.259C165.393 382.698 165.197 382.897 164.673 382.975C164.097 383.061 163.381 382.955 162.916 382.607C162.679 379.804 167.127 369.744 168.535 366.982Z"/>
		<path fill="white" transform="matrix(4.3266 0 0 4.3266 0 -116.818)" d="M170.171 370.275L170.639 370.583C171.477 372.466 172.576 374.374 172.37 376.492C171.834 377.099 171.464 376.962 170.677 377.026C169.779 377.027 168.891 377.003 167.995 376.949C167.629 375.78 169.665 371.584 170.171 370.275Z"/>
		<path fill="white" transform="matrix(4.3266 0 0 4.3266 0 -116.818)" d="M294.344 366.919C294.737 366.924 295.143 366.933 295.533 366.981C298.569 367.355 302.667 375.563 304.594 378.047L304.819 378.334C304.359 374.618 304.541 370.737 304.62 367.003C305.585 366.973 306.557 367.015 307.523 367.031C307.255 372.44 307.634 377.887 307.24 383.28C306.624 383.227 305.938 383.199 305.366 382.946C302.594 381.722 298.446 374.013 297.234 371.142C296.942 374.92 297.555 379.293 296.545 382.937C296.4 383.015 296.249 383.11 296.079 383.125C295.528 383.172 295.134 383.02 294.759 382.627C293.273 381.074 294.142 369.465 294.344 366.919Z"/>
		<path fill="white" transform="matrix(4.3266 0 0 4.3266 0 -116.818)" d="M278.839 378.181C279.997 375.108 282.062 369.638 284.062 367.194C284.935 366.803 285.933 366.947 286.871 366.974C287.012 370.711 287.881 378.529 286.741 381.772C286.446 382.612 286.113 383.083 285.297 383.449L284.772 383.049C283.772 381.108 284.074 378.314 284.07 376.176C283.975 374.287 284.002 372.38 283.979 370.488C283.205 373.46 282.287 378.506 279.524 380.216C278.936 380.285 278.719 380.361 278.183 380.059C276.02 378.843 274.916 373.814 274.343 371.483C274.034 374.305 274.098 377.152 274.005 379.986C273.962 381.298 273.42 382.637 272.455 383.531L271.991 383.493C271.936 383.423 271.873 383.359 271.826 383.283C270.307 380.863 270.925 369.894 271.319 366.947C271.991 366.924 272.775 366.824 273.379 367.166C275.571 368.406 278.273 375.724 278.839 378.181Z"/>
		<path fill="white" transform="matrix(4.3266 0 0 4.3266 0 -116.818)" d="M317.328 367.133C320.242 366.921 323.084 366.88 325.991 367.227C326.595 367.386 327.091 367.357 327.409 367.95C328.812 370.563 327.867 379.59 327.42 382.664C323.535 383.217 319.206 383.371 315.339 382.688L314.841 382.313C314.449 380.82 314.444 379.215 314.356 377.679C314.508 375.142 313.644 370.004 315.154 367.965C315.678 367.259 316.524 367.249 317.328 367.133Z"/>
		<path fill="white" transform="matrix(4.3266 0 0 4.3266 0 -116.818)" d="M317.511 368.98L325.043 368.907Q325.421 374.962 325.104 381.02C322.565 381.06 320.021 381.022 317.481 381.013L317.511 368.98Z"/>
		<path fill="#2A889F" transform="matrix(4.3266 0 0 4.3266 0 -116.818)" d="M208.94 114.019C215.739 121.361 222.927 128.252 229.982 135.339Q238.723 144.238 247.358 153.24C252.384 158.388 258.129 163.415 262.546 169.072C262.528 175.969 262.791 182.956 262.524 189.839C262.526 203.825 262.266 217.862 262.55 231.842Q257.105 226.494 251.755 221.051C249.552 218.828 247.392 216.446 244.969 214.466C239.603 209.434 234.56 203.91 229.427 198.629L208.65 177.488C206.258 174.724 203.404 172.189 200.812 169.595Q194.423 163.187 188.175 156.64C184.645 153.014 181.04 149.513 177.837 145.582C187.971 134.859 198.512 124.457 208.94 114.019Z"/>
		<path fill="#04304D" transform="matrix(4.3266 0 0 4.3266 0 -116.818)" d="M262.524 189.839C262.613 190.146 262.726 190.887 262.896 191.119C263.423 191.844 265.875 192.908 266.804 193.807L298.633 224.458C302.138 219.762 306.768 215.651 310.773 211.35C313.796 208.103 318.939 201.551 322.254 199.253C327.882 204.491 333.126 210.081 338.472 215.6C343.065 220.343 347.75 224.995 352.315 229.766C347.087 234.679 342.369 240.221 337.515 245.503L313.206 271.972C308.865 276.701 304.623 281.601 299.915 285.968C297.755 283.833 295.443 281.853 293.268 279.732L245.671 233.789Q245.652 229.614 245.427 225.446C245.269 222.6 244.086 217.048 244.969 214.466C247.392 216.446 249.552 218.828 251.755 221.051Q257.105 226.494 262.55 231.842C262.266 217.862 262.526 203.825 262.524 189.839Z"/>
		<path fill="#3E3E3E" transform="matrix(4.3266 0 0 4.3266 0 -116.818)" d="M318.024 241.641C319.033 241.621 319.311 241.657 320.197 242.201C323.411 244.176 328.8 249.61 329.727 253.341C329.652 253.309 329.575 253.284 329.504 253.246C328.604 252.76 320.326 244.744 319.222 243.497C318.703 242.91 318.299 242.384 318.024 241.641Z"/>
		<path fill="#2A889F" transform="matrix(4.3266 0 0 4.3266 0 -116.818)" d="M254.796 68.3133L322.138 136.522L342.42 157.059C346.469 161.141 350.868 165.112 354.494 169.574L354.394 204.924C354.345 213.892 354.166 222.87 354.507 231.834L352.315 229.766C347.75 224.995 343.065 220.343 338.472 215.6C333.126 210.081 327.882 204.491 322.254 199.253L256.079 132.172L234.882 110.632C231.224 106.929 227.619 103.114 223.823 99.5551C228.67 94.3169 233.794 89.3873 238.815 84.3226C244.137 78.9545 249.298 73.5099 254.796 68.3133Z"/>
		<path fill="#04304D" transform="matrix(4.3266 0 0 4.3266 0 -116.818)" d="M256.552 332.406C248.936 324.774 240.732 317.591 232.918 310.15L181.287 260.839L168.461 248.649C165.34 245.725 162.097 242.874 159.111 239.812C156.894 237.539 155.397 235.783 154.635 232.636C153.252 226.931 153.959 214.879 153.923 208.461C153.864 197.953 153.548 187.451 153.691 176.941C153.718 174.93 153.547 171.967 154.474 170.168C156.169 166.878 173.892 149.419 177.837 145.582C181.04 149.513 184.645 153.014 188.175 156.64Q194.423 163.187 200.812 169.595C203.404 172.189 206.258 174.724 208.65 177.488C207.889 177.727 207.3 178.288 206.725 178.821C203.576 181.74 200.747 185.02 197.756 188.099L182.825 203.181C186.179 205.759 189.197 209.081 192.31 211.96Q204.743 223.5 216.936 235.294L285.504 300.756C281.612 305.556 277.073 309.968 272.817 314.448Q264.404 323.173 256.552 332.406Z"/>
	</g>
</svg>
